G04 #@! TF.GenerationSoftware,KiCad,Pcbnew,10.0.5*
G04 #@! TF.CreationDate,2026-08-10T20:36:52-07:00*
G04 #@! TF.ProjectId,omnixie_v0_2,6f6d6e69-7869-4655-9f76-305f322e6b69,1*
G04 #@! TF.SameCoordinates,Original*
G04 #@! TF.FileFunction,Soldermask,Bot*
G04 #@! TF.FilePolarity,Negative*
%FSLAX46Y46*%
G04 Gerber Fmt 4.6, Leading zero omitted, Abs format (unit mm)*
G04 Created by KiCad (PCBNEW 10.0.5) date 2026-08-10 20:36:52*
%MOMM*%
%LPD*%
G01*
G04 APERTURE LIST*
%ADD10R,1.700000X1.700000*%
%ADD11C,1.700000*%
%ADD12C,2.800000*%
%ADD13C,0.100000*%
%ADD14C,0.650000*%
%ADD15O,2.100000X1.000000*%
%ADD16O,1.800000X1.000000*%
%ADD17R,0.280000X0.700000*%
%ADD18R,0.700000X0.280000*%
%ADD19R,2.300000X2.300000*%
G04 APERTURE END LIST*
D10*
G04 #@! TO.C,J5*
X157480000Y-80264000D03*
D11*
X157480000Y-82804000D03*
X157480000Y-85344000D03*
X157480000Y-87884000D03*
G04 #@! TD*
D12*
G04 #@! TO.C,TP8*
X124460000Y-96520000D03*
G04 #@! TD*
D10*
G04 #@! TO.C,J7*
X153416000Y-54610000D03*
D11*
X153416000Y-57150000D03*
X150876000Y-54610000D03*
X150876000Y-57150000D03*
X148336000Y-54610000D03*
X148336000Y-57150000D03*
X145796000Y-54610000D03*
X145796000Y-57150000D03*
X143256000Y-54610000D03*
X143256000Y-57150000D03*
X140716000Y-54610000D03*
X140716000Y-57150000D03*
X138176000Y-54610000D03*
X138176000Y-57150000D03*
X135636000Y-54610000D03*
X135636000Y-57150000D03*
G04 #@! TD*
D10*
G04 #@! TO.C,J1*
X151828000Y-119634000D03*
D11*
X149288000Y-119634000D03*
X146748000Y-119634000D03*
X144208000Y-119634000D03*
X141668000Y-119634000D03*
X139128000Y-119634000D03*
X136588000Y-119634000D03*
X134048000Y-119634000D03*
X131508000Y-119634000D03*
X128968000Y-119634000D03*
G04 #@! TD*
D12*
G04 #@! TO.C,RIS1*
X147078000Y-98174000D03*
G04 #@! TD*
G04 #@! TO.C,+3V3*
X165608000Y-80772000D03*
G04 #@! TD*
G04 #@! TO.C,TP18*
X175514000Y-101346000D03*
G04 #@! TD*
G04 #@! TO.C,D+*
X166370000Y-107696000D03*
G04 #@! TD*
D10*
G04 #@! TO.C,J6*
X180086000Y-99314000D03*
D11*
X180086000Y-96774000D03*
X180086000Y-94234000D03*
G04 #@! TD*
D12*
G04 #@! TO.C,+3V3*
X159258000Y-96520000D03*
G04 #@! TD*
G04 #@! TO.C,TP6*
X148590000Y-91186000D03*
G04 #@! TD*
G04 #@! TO.C,GND*
X165608000Y-85090000D03*
G04 #@! TD*
D13*
G04 #@! TO.C,J8*
X162670000Y-67594000D03*
X170070000Y-64994000D03*
G04 #@! TD*
D12*
G04 #@! TO.C,TP14*
X148336000Y-81788000D03*
G04 #@! TD*
G04 #@! TO.C,TP12*
X124206000Y-85852000D03*
G04 #@! TD*
G04 #@! TO.C,SDA*
X169926000Y-85090000D03*
G04 #@! TD*
G04 #@! TO.C,SCL*
X169926000Y-80772000D03*
G04 #@! TD*
G04 #@! TO.C,TP13*
X144272000Y-114046000D03*
G04 #@! TD*
G04 #@! TO.C,D-*
X166370000Y-115062000D03*
G04 #@! TD*
D14*
G04 #@! TO.C,J4*
X175957000Y-114142000D03*
X175957000Y-108362000D03*
D15*
X175457000Y-115572000D03*
D16*
X179637000Y-115572000D03*
D15*
X175457000Y-106932000D03*
D16*
X179637000Y-106932000D03*
G04 #@! TD*
D12*
G04 #@! TO.C,TP11*
X136906000Y-99060000D03*
G04 #@! TD*
D17*
G04 #@! TO.C,U3*
X165120000Y-64344000D03*
X165620000Y-64344000D03*
X166120000Y-64344000D03*
X166620000Y-64344000D03*
X167120000Y-64344000D03*
X167620000Y-64344000D03*
D18*
X168320000Y-65044000D03*
X168320000Y-65544000D03*
X168320000Y-66044000D03*
X168320000Y-66544000D03*
X168320000Y-67044000D03*
X168320000Y-67544000D03*
D17*
X167620000Y-68244000D03*
X167120000Y-68244000D03*
X166620000Y-68244000D03*
X166120000Y-68244000D03*
X165620000Y-68244000D03*
X165120000Y-68244000D03*
D18*
X164420000Y-67544000D03*
X164420000Y-67044000D03*
X164420000Y-66544000D03*
X164420000Y-66044000D03*
X164420000Y-65544000D03*
X164420000Y-65044000D03*
D19*
X166370000Y-66294000D03*
G04 #@! TD*
M02*
