G04 #@! TF.GenerationSoftware,KiCad,Pcbnew,10.0.5*
G04 #@! TF.CreationDate,2026-08-10T20:36:52-07:00*
G04 #@! TF.ProjectId,omnixie_v0_2,6f6d6e69-7869-4655-9f76-305f322e6b69,1*
G04 #@! TF.SameCoordinates,Original*
G04 #@! TF.FileFunction,Paste,Top*
G04 #@! TF.FilePolarity,Positive*
%FSLAX46Y46*%
G04 Gerber Fmt 4.6, Leading zero omitted, Abs format (unit mm)*
G04 Created by KiCad (PCBNEW 10.0.5) date 2026-08-10 20:36:52*
%MOMM*%
%LPD*%
G01*
G04 APERTURE LIST*
G04 Aperture macros list*
%AMRoundRect*
0 Rectangle with rounded corners*
0 $1 Rounding radius*
0 $2 $3 $4 $5 $6 $7 $8 $9 X,Y pos of 4 corners*
0 Add a 4 corners polygon primitive as box body*
4,1,4,$2,$3,$4,$5,$6,$7,$8,$9,$2,$3,0*
0 Add four circle primitives for the rounded corners*
1,1,$1+$1,$2,$3*
1,1,$1+$1,$4,$5*
1,1,$1+$1,$6,$7*
1,1,$1+$1,$8,$9*
0 Add four rect primitives between the rounded corners*
20,1,$1+$1,$2,$3,$4,$5,0*
20,1,$1+$1,$4,$5,$6,$7,0*
20,1,$1+$1,$6,$7,$8,$9,0*
20,1,$1+$1,$8,$9,$2,$3,0*%
%AMFreePoly0*
4,1,5,0.275000,-0.750000,-0.275000,-0.750000,-0.275000,0.750000,0.275000,0.750000,0.275000,-0.750000,0.275000,-0.750000,$1*%
G04 Aperture macros list end*
%ADD10RoundRect,0.240000X-0.560000X-0.710000X0.560000X-0.710000X0.560000X0.710000X-0.560000X0.710000X0*%
%ADD11RoundRect,0.150000X-0.150000X0.512500X-0.150000X-0.512500X0.150000X-0.512500X0.150000X0.512500X0*%
%ADD12RoundRect,0.250000X-0.450000X0.262500X-0.450000X-0.262500X0.450000X-0.262500X0.450000X0.262500X0*%
%ADD13RoundRect,0.150000X0.150000X-0.512500X0.150000X0.512500X-0.150000X0.512500X-0.150000X-0.512500X0*%
%ADD14RoundRect,0.167500X-0.167500X0.167500X-0.167500X-0.167500X0.167500X-0.167500X0.167500X0.167500X0*%
%ADD15RoundRect,0.050000X-0.050000X0.375000X-0.050000X-0.375000X0.050000X-0.375000X0.050000X0.375000X0*%
%ADD16RoundRect,0.050000X-0.375000X0.050000X-0.375000X-0.050000X0.375000X-0.050000X0.375000X0.050000X0*%
%ADD17RoundRect,0.250000X0.250000X0.475000X-0.250000X0.475000X-0.250000X-0.475000X0.250000X-0.475000X0*%
%ADD18RoundRect,0.250000X0.450000X-0.262500X0.450000X0.262500X-0.450000X0.262500X-0.450000X-0.262500X0*%
%ADD19RoundRect,0.150000X0.625000X-0.150000X0.625000X0.150000X-0.625000X0.150000X-0.625000X-0.150000X0*%
%ADD20RoundRect,0.250000X0.650000X-0.350000X0.650000X0.350000X-0.650000X0.350000X-0.650000X-0.350000X0*%
%ADD21RoundRect,0.250000X-0.475000X0.250000X-0.475000X-0.250000X0.475000X-0.250000X0.475000X0.250000X0*%
%ADD22RoundRect,0.375000X0.625000X0.375000X-0.625000X0.375000X-0.625000X-0.375000X0.625000X-0.375000X0*%
%ADD23RoundRect,0.500000X0.500000X1.400000X-0.500000X1.400000X-0.500000X-1.400000X0.500000X-1.400000X0*%
%ADD24RoundRect,0.237500X-0.250000X-0.237500X0.250000X-0.237500X0.250000X0.237500X-0.250000X0.237500X0*%
%ADD25R,0.550000X1.500000*%
%ADD26FreePoly0,0.000000*%
%ADD27RoundRect,0.218750X0.256250X-0.218750X0.256250X0.218750X-0.256250X0.218750X-0.256250X-0.218750X0*%
%ADD28RoundRect,0.250000X-1.450000X0.537500X-1.450000X-0.537500X1.450000X-0.537500X1.450000X0.537500X0*%
%ADD29RoundRect,0.250000X0.262500X0.450000X-0.262500X0.450000X-0.262500X-0.450000X0.262500X-0.450000X0*%
%ADD30RoundRect,0.150000X-0.512500X-0.150000X0.512500X-0.150000X0.512500X0.150000X-0.512500X0.150000X0*%
%ADD31RoundRect,0.082500X-0.517500X-0.192500X0.517500X-0.192500X0.517500X0.192500X-0.517500X0.192500X0*%
%ADD32RoundRect,0.150000X0.425000X-0.150000X0.425000X0.150000X-0.425000X0.150000X-0.425000X-0.150000X0*%
%ADD33RoundRect,0.075000X0.500000X-0.075000X0.500000X0.075000X-0.500000X0.075000X-0.500000X-0.075000X0*%
%ADD34O,2.100000X1.000000*%
%ADD35O,1.800000X1.000000*%
%ADD36RoundRect,0.150000X0.512500X0.150000X-0.512500X0.150000X-0.512500X-0.150000X0.512500X-0.150000X0*%
%ADD37RoundRect,0.250000X0.475000X-0.250000X0.475000X0.250000X-0.475000X0.250000X-0.475000X-0.250000X0*%
%ADD38RoundRect,0.250000X-0.250000X-0.475000X0.250000X-0.475000X0.250000X0.475000X-0.250000X0.475000X0*%
%ADD39RoundRect,0.250000X-1.075000X0.362500X-1.075000X-0.362500X1.075000X-0.362500X1.075000X0.362500X0*%
%ADD40RoundRect,0.218750X-0.218750X-0.256250X0.218750X-0.256250X0.218750X0.256250X-0.218750X0.256250X0*%
%ADD41RoundRect,0.200000X-0.275000X0.200000X-0.275000X-0.200000X0.275000X-0.200000X0.275000X0.200000X0*%
G04 APERTURE END LIST*
D10*
G04 #@! TO.C,D1*
X128406000Y-94234000D03*
X132706000Y-94234000D03*
G04 #@! TD*
D11*
G04 #@! TO.C,Q4*
X170876000Y-58856500D03*
X168976000Y-58856500D03*
X169926000Y-61131500D03*
G04 #@! TD*
G04 #@! TO.C,Q2*
X167320000Y-58856500D03*
X165420000Y-58856500D03*
X166370000Y-61131500D03*
G04 #@! TD*
D12*
G04 #@! TO.C,R14*
X171196000Y-107291500D03*
X171196000Y-109116500D03*
G04 #@! TD*
D13*
G04 #@! TO.C,Q5*
X168976000Y-55697500D03*
X170876000Y-55697500D03*
X169926000Y-53422500D03*
G04 #@! TD*
D14*
G04 #@! TO.C,U1*
X156038000Y-110296000D03*
X155218000Y-110296000D03*
X156038000Y-111116000D03*
X155218000Y-111116000D03*
D15*
X156428000Y-109256000D03*
X156028000Y-109256000D03*
X155628000Y-109256000D03*
X155228000Y-109256000D03*
X154828000Y-109256000D03*
D16*
X154178000Y-109906000D03*
X154178000Y-110306000D03*
X154178000Y-110706000D03*
X154178000Y-111106000D03*
X154178000Y-111506000D03*
D15*
X154828000Y-112156000D03*
X155228000Y-112156000D03*
X155628000Y-112156000D03*
X156028000Y-112156000D03*
X156428000Y-112156000D03*
D16*
X157078000Y-111506000D03*
X157078000Y-111106000D03*
X157078000Y-110706000D03*
X157078000Y-110306000D03*
X157078000Y-109906000D03*
G04 #@! TD*
D17*
G04 #@! TO.C,C1*
X171384000Y-102362000D03*
X169484000Y-102362000D03*
G04 #@! TD*
D18*
G04 #@! TO.C,R12*
X142494000Y-85899000D03*
X142494000Y-84074000D03*
G04 #@! TD*
D19*
G04 #@! TO.C,J2*
X176308000Y-79986000D03*
X176308000Y-78986000D03*
X176308000Y-77986000D03*
X176308000Y-76986000D03*
D20*
X180183000Y-81286000D03*
X180183000Y-75686000D03*
G04 #@! TD*
D11*
G04 #@! TO.C,U4*
X171892000Y-97210500D03*
X169992000Y-97210500D03*
X170942000Y-99485500D03*
G04 #@! TD*
D21*
G04 #@! TO.C,C5*
X142240000Y-95062000D03*
X142240000Y-96962000D03*
G04 #@! TD*
D11*
G04 #@! TO.C,Q6*
X179766000Y-59364500D03*
X177866000Y-59364500D03*
X178816000Y-61639500D03*
G04 #@! TD*
D22*
G04 #@! TO.C,Q12*
X139548000Y-88660000D03*
X139548000Y-86360000D03*
D23*
X133248000Y-86360000D03*
D22*
X139548000Y-84060000D03*
G04 #@! TD*
D24*
G04 #@! TO.C,R3*
X141665500Y-93424000D03*
X143490500Y-93424000D03*
G04 #@! TD*
D18*
G04 #@! TO.C,R17*
X142494000Y-90320500D03*
X142494000Y-88495500D03*
G04 #@! TD*
D25*
G04 #@! TO.C,J8*
X163570000Y-64294000D03*
X164370000Y-64294000D03*
X165170000Y-64294000D03*
X165970000Y-64294000D03*
X166770000Y-64294000D03*
X167570000Y-64294000D03*
X168370000Y-64294000D03*
X169170000Y-64294000D03*
X169170000Y-68294000D03*
X168370000Y-68294000D03*
X167570000Y-68294000D03*
X166770000Y-68294000D03*
X165970000Y-68294000D03*
X165170000Y-68294000D03*
X164370000Y-68294000D03*
D26*
X163570000Y-68294000D03*
G04 #@! TD*
D19*
G04 #@! TO.C,J3*
X176308000Y-88876000D03*
X176308000Y-87876000D03*
X176308000Y-86876000D03*
X176308000Y-85876000D03*
D20*
X180183000Y-90176000D03*
X180183000Y-84576000D03*
G04 #@! TD*
D27*
G04 #@! TO.C,+5V*
X164338000Y-102870000D03*
X164338000Y-101295000D03*
G04 #@! TD*
D28*
G04 #@! TO.C,C2*
X129286000Y-97176500D03*
X129286000Y-101451500D03*
G04 #@! TD*
D29*
G04 #@! TO.C,R8*
X163218500Y-112014000D03*
X161393500Y-112014000D03*
G04 #@! TD*
D11*
G04 #@! TO.C,Q0*
X163510000Y-58602500D03*
X161610000Y-58602500D03*
X162560000Y-60877500D03*
G04 #@! TD*
D30*
G04 #@! TO.C,Q10*
X178998500Y-69408000D03*
X178998500Y-71308000D03*
X181273500Y-70358000D03*
G04 #@! TD*
D12*
G04 #@! TO.C,R15*
X161798000Y-106021500D03*
X161798000Y-107846500D03*
G04 #@! TD*
G04 #@! TO.C,R16*
X166116000Y-101297000D03*
X166116000Y-103122000D03*
G04 #@! TD*
D31*
G04 #@! TO.C,T1*
X140030000Y-93349000D03*
X140030000Y-95119000D03*
X136830000Y-95119000D03*
X136830000Y-93349000D03*
G04 #@! TD*
D30*
G04 #@! TO.C,Q9*
X178744500Y-65598000D03*
X178744500Y-67498000D03*
X181019500Y-66548000D03*
G04 #@! TD*
D13*
G04 #@! TO.C,Q7*
X173040000Y-57983500D03*
X174940000Y-57983500D03*
X173990000Y-55708500D03*
G04 #@! TD*
D18*
G04 #@! TO.C,R11*
X152078000Y-114958500D03*
X152078000Y-113133500D03*
G04 #@! TD*
D32*
G04 #@! TO.C,J4*
X174882000Y-114452000D03*
X174882000Y-113652000D03*
D33*
X174882000Y-112502000D03*
X174882000Y-111502000D03*
X174882000Y-111002000D03*
X174882000Y-110002000D03*
D32*
X174882000Y-108852000D03*
X174882000Y-108052000D03*
X174882000Y-108052000D03*
X174882000Y-108852000D03*
D33*
X174882000Y-109502000D03*
X174882000Y-110502000D03*
X174882000Y-112002000D03*
X174882000Y-113002000D03*
D32*
X174882000Y-113652000D03*
X174882000Y-114452000D03*
D34*
X175457000Y-115572000D03*
D35*
X179637000Y-115572000D03*
D34*
X175457000Y-106932000D03*
D35*
X179637000Y-106932000D03*
G04 #@! TD*
D36*
G04 #@! TO.C,Q11*
X175839500Y-69784000D03*
X175839500Y-67884000D03*
X173564500Y-68834000D03*
G04 #@! TD*
D37*
G04 #@! TO.C,C4*
X152146000Y-108900000D03*
X152146000Y-107000000D03*
G04 #@! TD*
D13*
G04 #@! TO.C,Q3*
X165166000Y-55697500D03*
X167066000Y-55697500D03*
X166116000Y-53422500D03*
G04 #@! TD*
D12*
G04 #@! TO.C,R13*
X171196000Y-113387500D03*
X171196000Y-115212500D03*
G04 #@! TD*
D38*
G04 #@! TO.C,C3*
X169738000Y-93980000D03*
X171638000Y-93980000D03*
G04 #@! TD*
D29*
G04 #@! TO.C,R10*
X166266500Y-97028000D03*
X164441500Y-97028000D03*
G04 #@! TD*
D39*
G04 #@! TO.C,R6*
X128524000Y-82777500D03*
X128524000Y-87402500D03*
G04 #@! TD*
D40*
G04 #@! TO.C,D3*
X164439500Y-95250000D03*
X166014500Y-95250000D03*
G04 #@! TD*
D29*
G04 #@! TO.C,R9*
X163218500Y-109982000D03*
X161393500Y-109982000D03*
G04 #@! TD*
D13*
G04 #@! TO.C,Q1*
X161356000Y-55697500D03*
X163256000Y-55697500D03*
X162306000Y-53422500D03*
G04 #@! TD*
D12*
G04 #@! TO.C,R7*
X148336000Y-113133500D03*
X148336000Y-114958500D03*
G04 #@! TD*
D36*
G04 #@! TO.C,Q8*
X175839500Y-65720000D03*
X175839500Y-63820000D03*
X173564500Y-64770000D03*
G04 #@! TD*
D41*
G04 #@! TO.C,R5*
X128016000Y-90107000D03*
X128016000Y-91757000D03*
G04 #@! TD*
M02*
